<svg width="230" height="216" viewBox="0 0 230 216" fill="none" xmlns="http://www.w3.org/2000/svg">
<path d="M97.9145 174.836L65.7185 151.505C55.5353 144.124 51.2734 131.044 55.1631 119.101L67.4598 81.3505C71.3495 69.41 82.5074 61.3238 95.0943 61.3238H134.893C147.483 61.3238 158.638 69.41 162.528 81.3505L174.824 119.101C178.714 131.041 174.452 144.124 164.269 151.505L132.073 174.836C121.89 182.217 108.098 182.217 97.9114 174.836H97.9145Z" fill="#E6B017"/>
<path d="M130.246 4.9469C139.341 11.5386 143.146 23.2179 139.672 33.881L136.682 43.0622C134.991 48.2506 130.145 51.7619 124.675 51.7619H105.315C99.8452 51.7619 94.9997 48.2506 93.3088 43.0622L90.3182 33.8779C86.845 23.2148 90.6495 11.5354 99.7442 4.94376C108.839 -1.64792 121.152 -1.64792 130.246 4.94376V4.9469Z" fill="#E6B017"/>
<path d="M229.38 87.3538L223.393 105.716C221.702 110.904 216.853 114.413 211.386 114.413L192.026 114.406C186.556 114.406 181.711 110.892 180.023 105.703L174.045 87.3349C172.357 82.1465 174.209 76.4642 178.635 73.2611L194.301 61.9153C198.727 58.7091 204.717 58.7123 209.14 61.9184L224.8 73.2737C229.223 76.4799 231.071 82.1654 229.38 87.3506V87.3538Z" fill="#E6B017"/>
<path d="M0.616511 87.5143L6.60399 105.877C8.29487 111.065 13.1435 114.573 18.6136 114.573L37.9736 114.567C43.4437 114.567 48.2892 111.052 49.9769 105.864L55.9549 87.4986C57.6426 82.3102 55.7909 76.6278 51.3649 73.4248L35.6991 62.079C31.2731 58.8728 25.2825 58.8759 20.8597 62.0821L5.20018 73.4374C0.777397 76.6436 -1.07121 82.3291 0.619666 87.5143H0.616511Z" fill="#E6B017"/>
<path d="M179.253 215.984L159.893 216C154.423 216.003 149.575 212.495 147.881 207.31L141.884 188.951C140.19 183.765 142.038 178.08 146.458 174.871L162.111 163.509C166.534 160.3 172.525 160.296 176.951 163.496L192.623 174.836C197.049 178.039 198.907 183.721 197.219 188.91L191.25 207.278C189.566 212.467 184.72 215.984 179.25 215.987L179.253 215.984Z" fill="#E6B017"/>
<path d="M50.8034 215.984L70.1633 216C75.6334 216.003 80.4821 212.495 82.1761 207.31L88.1731 188.947C89.8671 183.762 88.0185 178.077 83.5989 174.867L67.9456 163.506C63.5228 160.296 57.5322 160.293 53.1063 163.493L37.4341 174.833C33.0082 178.036 31.1533 183.718 32.8378 188.906L38.8064 207.275C40.4909 212.463 45.3364 215.981 50.8066 215.984H50.8034Z" fill="#E6B017"/>
</svg>
