<svg width="730" height="687" viewBox="0 0 730 687" fill="none" xmlns="http://www.w3.org/2000/svg">
<path d="M310.384 555.672L208.324 481.522C176.044 458.062 162.534 416.492 174.864 378.532L213.844 258.552C226.174 220.602 261.544 194.902 301.444 194.902H427.604C467.514 194.902 502.874 220.602 515.204 258.552L554.184 378.532C566.514 416.482 553.004 458.062 520.724 481.522L418.664 555.672C386.384 579.132 342.664 579.132 310.374 555.672H310.384Z" fill="white"/>
<path d="M412.874 15.7225C441.704 36.6725 453.764 73.7925 442.754 107.682L433.274 136.863C427.914 153.353 412.554 164.512 395.214 164.512H333.844C316.504 164.512 301.144 153.353 295.784 136.863L286.304 107.673C275.294 73.7825 287.354 36.6625 316.184 15.7125C345.014 -5.2375 384.044 -5.2375 412.874 15.7125V15.7225Z" fill="white"/>
<path d="M727.124 277.633L708.144 335.993C702.784 352.483 687.414 363.633 670.084 363.633L608.714 363.613C591.374 363.613 576.014 352.443 570.664 335.953L551.714 277.573C546.364 261.083 552.234 243.023 566.264 232.843L615.924 196.783C629.954 186.593 648.944 186.603 662.964 196.793L712.604 232.883C726.624 243.073 732.484 261.143 727.124 277.623V277.633Z" fill="white"/>
<path d="M1.95431 278.142L20.9343 336.502C26.2943 352.992 41.6643 364.142 59.0043 364.142L120.374 364.122C137.714 364.122 153.074 352.952 158.424 336.462L177.374 278.092C182.724 261.602 176.854 243.542 162.824 233.362L113.164 197.302C99.1343 187.112 80.1443 187.122 66.1243 197.312L16.4843 233.402C2.46431 243.592 -3.39569 261.662 1.96431 278.142H1.95431Z" fill="white"/>
<path d="M568.224 686.453L506.854 686.503C489.514 686.513 474.144 675.363 468.774 658.883L449.764 600.533C444.394 584.053 450.254 565.983 464.264 555.783L513.884 519.672C527.904 509.472 546.894 509.463 560.924 519.633L610.604 555.672C624.634 565.852 630.524 583.913 625.174 600.403L606.254 658.783C600.914 675.273 585.554 686.453 568.214 686.463L568.224 686.453Z" fill="white"/>
<path d="M161.044 686.452L222.414 686.502C239.754 686.512 255.124 675.362 260.494 658.882L279.504 600.522C284.874 584.042 279.014 565.972 265.004 555.772L215.384 519.663C201.364 509.463 182.374 509.452 168.344 519.622L118.664 555.663C104.634 565.843 98.7543 583.902 104.094 600.392L123.014 658.772C128.354 675.262 143.714 686.442 161.054 686.452H161.044Z" fill="white"/>
</svg>
